<svg xmlns="http://www.w3.org/2000/svg" viewBox="0 0 24 24"><path d="M2.4 2.6C1.1 2.5 0 3.5 0 4.8V12c0 .4.1.7.3 1.1l2.9 5.2c.4.8 1.3 1.2 2.2 1.2h1.4v-5.9c0-.2.2-.4.4-.4h2.3v4c0 1.3 1.1 2.3 2.4 2.3H14v-1.9h-2.1c-.2 0-.4-.2-.4-.4V11c0-.2.2-.4.4-.4h1.9c1.3 0 2.4-1 2.4-2.3V4.9l2.8 5v2.7h2V10c0-.3-.1-.7-.3-1l-2.9-5.2c-.4-.8-1.3-1.2-2.2-1.2h-1.4v5.9c0 .2-.2.4-.4.4h-2.3v-4c0-1.3-1.1-2.3-2.4-2.3H2.4zm0 1.8H9c.2 0 .4.2.4.4v6.1h.1c0 .2-.2.4-.4.4H7.2c-1.3 0-2.4 1-2.4 2.3V17L2 12.2V4.8c0-.2.2-.4.4-.4zM19 14.5v3h-3v2h3v3h2v-3h3v-2h-3v-3h-2z"/></svg>